<?xml version="1.0" encoding="UTF-8"?>
<!DOCTYPE svg PUBLIC "-//W3C//DTD SVG 1.1//EN" "http://www.w3.org/Graphics/SVG/1.1/DTD/svg11.dtd">
<!-- Creator: CorelDRAW -->
<svg xmlns="http://www.w3.org/2000/svg" xml:space="preserve" width="500mm" height="500mm" version="1.1" style="shape-rendering:geometricPrecision; text-rendering:geometricPrecision; image-rendering:optimizeQuality; fill-rule:evenodd; clip-rule:evenodd"
viewBox="0 0 50000 50000"
 xmlns:xlink="http://www.w3.org/1999/xlink"
 xmlns:xodm="http://www.corel.com/coreldraw/odm/2003"
 data-name="Capa 1">
 <defs>
  <style type="text/css">
   <![CDATA[
    .fil0 {fill:white;fill-rule:nonzero}
   ]]>
  </style>
 </defs>
 <g id="Capa_x0020_1">
  <metadata id="CorelCorpID_0Corel-Layer"/>
  <g id="_105553149576160">
   <path class="fil0" d="M931.54 37327.28l-2.67 -10090.42c41.28,-6497.42 8429.75,-10138.33 13054.81,-5591.89l962.81 1233.15c1038.76,-1696.61 2773.98,-3003.05 4803.49,-3188.12 4759.54,-431.5 8754.69,2410.43 9150.2,7280.51l-2.66 10356.72 -5193.62 0.05 2.67 -9491.16c-10.67,-2301.2 -1475.55,-3691.54 -3802.07,-3264.01 -1157.25,213.06 -2326.52,1392.95 -2326.52,2600.83l0 10154.34 -5260.26 0 2.67 -9491.16c-42.63,-1647.33 -755.09,-3041.64 -2507.62,-3285.35 -1385,-193.08 -2745.99,230.37 -3319.99,1591.41 -85.21,202.44 -300.98,844.33 -300.98,1030.76l0 10154.34 -5260.26 0z"/>
   <path class="fil0" d="M46742.57 36794.61c-1379.67,243.71 -2759.33,551.35 -4161.6,665.85 -5101.8,415.5 -10227.57,-1349.01 -11266.33,-6910.25 -921.54,-4931.34 1614.06,-9473.85 6584,-10621.78 3462.47,-799.03 8986.42,119.84 10075.77,4083.02 1576.77,5741.04 -5622.5,7823.85 -9982.56,6653.26 -418.16,-111.89 -905.58,-371.55 -1275.78,-456.76 -91.9,-21.3 -122.51,0 -94.57,94.57 147.83,487.42 745.78,1149.29 1175.92,1420.94 1817.81,1150.6 5615.85,700.48 7701.33,400.85 416.81,-59.95 837.64,-141.19 1242.51,-255.69l0 4927.35 1.31 -1.36zm-7072.73 -12033.4c-894.91,94.57 -2347.81,732.44 -2727.37,1602.03 -31.96,74.6 -89.24,70.57 11.98,145.16 1470.21,362.25 3242.72,687.19 4742.23,346.24 623.27,-141.18 1293.09,-444.79 1181.26,-1207.88 -157.14,-1064.03 -2421.05,-968.15 -3206.79,-885.6l-1.31 0.05z"/>
   <polygon class="fil0" points="4793.56,2769.25 9555.77,11292.27 14381.91,2769.25 18243.88,2769.25 18243.88,18283.76 14448.5,18283.76 14448.5,9760.8 11520.05,14722.73 7819.2,14758.72 7596.78,14648.19 4726.97,9760.8 4726.97,18283.76 931.54,18283.76 931.54,2769.25 "/>
   <polygon class="fil0" points="31627.6,2769.25 37686.94,11824.94 37686.94,2769.25 41482.31,2769.25 41482.31,18283.76 37720.21,18283.76 31561.01,9228.08 31561.01,18283.76 27832.23,18283.76 27832.23,2769.25 "/>
   <rect class="fil0" x="21107.04" y="2769.25" width="3795.38" height="15514.51"/>
   <rect class="fil0" x="44412.07" y="2769.25" width="3795.38" height="15514.51"/>
  </g>
 </g>
</svg>
