<?xml version="1.0" encoding="UTF-8"?>
<svg id="Capa_1" data-name="Capa 1" xmlns="http://www.w3.org/2000/svg" viewBox="0 0 375 284">
  <defs>
    <style>
      .cls-1 {
        fill: #fff;
      }
    </style>
  </defs>
  <path class="cls-1" d="M375,0v284H0V0h375ZM39.5,14H10.5v116.5h28.5v-64l21.55,36.7,1.66.84,27.79-.27,21.99-37.26v64h28.5V14h-29l-36.24,64L39.5,14ZM190.5,14h-28.5v116.5h28.5V14ZM241,14h-28.5v116.5h28V62.5l46.25,68h28.25V14h-28.5v68L241,14ZM365.5,14h-28.5v116.5h28.5V14ZM10.5,273.5h39.5v-76.25c0-1.4,1.62-6.22,2.26-7.74,4.31-10.22,14.54-13.4,24.93-11.95,13.15,1.83,18.51,12.3,18.83,24.67l-.02,71.27h39.5v-76.25c0-9.07,8.78-17.93,17.47-19.53,17.47-3.21,28.47,7.23,28.55,24.51l-.02,71.27h39l.02-77.77c-2.97-36.57-32.97-57.91-68.71-54.67-15.23,1.38-28.27,11.2-36.07,23.94l-7.23-9.26c-34.73-34.13-97.73-6.8-98.03,41.99l.02,75.77ZM354.5,269.5v-37c-3.04.86-6.2,1.47-9.33,1.92-15.66,2.25-44.17,5.64-57.83-3.01-3.23-2.04-7.72-7.01-8.83-10.67-.21-.7.02-.87.71-.71,2.77.64,6.43,2.59,9.58,3.43,32.74,8.79,86.8-6.85,74.96-49.96-8.17-29.76-49.66-36.66-75.66-30.66-37.33,8.62-56.36,42.73-49.44,79.76,7.8,41.76,46.29,55.01,84.6,51.89,10.53-.86,20.89-3.16,31.25-5Z"/>
  <path d="M10.5,273.5l-.02-75.77c.31-48.79,63.3-76.13,98.03-41.99l7.23,9.26c7.8-12.74,20.83-22.55,36.07-23.94,35.74-3.24,65.74,18.1,68.71,54.67l-.02,77.77h-39l.02-71.27c-.08-17.28-11.08-27.72-28.55-24.51-8.69,1.6-17.47,10.46-17.47,19.53v76.25h-39.5l.02-71.27c-.32-12.37-5.67-22.84-18.83-24.67-10.4-1.45-20.62,1.73-24.93,11.95-.64,1.52-2.26,6.34-2.26,7.74v76.25H10.5Z"/>
  <path d="M354.5,269.5c-10.36,1.83-20.72,4.14-31.25,5-38.31,3.12-76.8-10.13-84.6-51.89-6.92-37.03,12.12-71.14,49.44-79.76,26-6,67.48.9,75.66,30.66,11.84,43.11-42.22,58.75-74.96,49.96-3.14-.84-6.8-2.79-9.58-3.43-.69-.16-.92,0-.71.71,1.11,3.66,5.6,8.63,8.83,10.67,13.65,8.64,42.17,5.26,57.83,3.01,3.13-.45,6.29-1.06,9.33-1.92v37ZM301.39,179.14c-6.72.71-17.63,5.5-20.48,12.03-.24.56-.67.53.09,1.09,11.04,2.72,24.35,5.16,35.61,2.6,4.68-1.06,9.71-3.34,8.87-9.07-1.18-7.99-18.18-7.27-24.08-6.65Z"/>
  <polygon points="39.5 14 75.26 78 111.5 14 140.5 14 140.5 130.5 112 130.5 112 66.5 90.01 103.76 62.22 104.03 60.55 103.2 39 66.5 39 130.5 10.5 130.5 10.5 14 39.5 14"/>
  <polygon points="241 14 286.5 82 286.5 14 315 14 315 130.5 286.75 130.5 240.5 62.5 240.5 130.5 212.5 130.5 212.5 14 241 14"/>
  <rect x="162" y="14" width="28.5" height="116.5"/>
  <rect x="337" y="14" width="28.5" height="116.5"/>
  <path class="cls-1" d="M301.39,179.14c5.9-.63,22.9-1.34,24.08,6.65.84,5.72-4.19,8-8.87,9.07-11.26,2.56-24.57.12-35.61-2.6-.76-.56-.33-.53-.09-1.09,2.86-6.52,13.76-11.31,20.48-12.03Z"/>
</svg>